<svg width="1000" height="1000" viewBox="0 0 1000 1000" fill="none" xmlns="http://www.w3.org/2000/svg">
<path d="M616.682 141.874C587.393 128.233 579.014 120.541 573.252 116.003C570.651 136.134 575.653 188.694 601.58 210.316C609.649 217.045 619.584 223.344 631.481 229.1C624.121 245.636 628.123 265.173 634.589 277.78C641.055 290.387 662.04 296.164 677.751 300.351C673.808 323.816 669.236 342.914 682.453 355.357C698.535 370.496 744.168 378.564 744.168 378.564C744.168 378.564 737.922 419.455 745.825 431.104C753.728 442.754 785.128 454.407 813.939 461.455C842.75 468.502 833.49 474.189 873.095 494.246C912.7 514.303 953.07 497.537 953.07 461.455C953.07 425.373 929.87 349.963 920.985 322.663C912.332 296.074 892.059 231.898 842.641 200.014C793.223 168.129 645.971 155.514 616.682 141.874Z" fill="#AAAAAA"/>
<path d="M744.168 378.564C744.168 378.564 737.922 419.455 745.825 431.104C753.728 442.754 785.128 454.407 813.939 461.455C842.75 468.502 833.49 474.189 873.095 494.246C912.7 514.303 953.07 497.537 953.07 461.455C953.07 425.373 929.87 349.963 920.985 322.663C912.332 296.074 892.059 231.898 842.641 200.014C793.223 168.129 645.971 155.514 616.682 141.874C587.393 128.233 579.014 120.541 573.252 116.003C570.651 136.134 575.653 188.694 601.58 210.316C609.649 217.045 619.584 223.344 631.481 229.1M744.168 378.564C744.168 378.564 807.099 394.244 854.707 398.676M744.168 378.564C744.168 378.564 698.535 370.496 682.453 355.357C669.236 342.914 673.808 323.816 677.751 300.351M795.281 263.271C721.101 258.884 667.368 246.462 631.481 229.1M631.481 229.1C624.121 245.636 628.123 265.173 634.589 277.78C641.055 290.387 662.04 296.164 677.751 300.351M813.545 323.816C771.225 316.148 716.879 310.779 677.751 300.351" stroke="black" stroke-width="20" stroke-linecap="round" stroke-linejoin="round"/>
<path d="M903.964 357.39C906.595 358.539 908.944 359.927 910.939 361.589C930.499 377.889 942.452 405.056 948.972 427.876C955.492 450.697 974.439 574.19 966.36 618.045C958.752 659.339 925.065 682.159 906.592 693.026C888.118 703.892 664.263 768.006 596.889 777.786C562.116 786.842 526.255 788.653 492.568 788.653C458.881 788.653 371.947 766.92 345.867 748.446C319.787 729.972 317.613 715.846 308.92 675.639C300.226 635.432 296.967 510.464 299.14 474.603C301.313 438.743 303.486 406.143 373.034 381.149C442.581 356.156 647.963 324.642 740.331 318.122C808.402 313.317 873.707 340.112 903.964 357.39Z" fill="white"/>
<path d="M910.939 361.589C891.378 345.289 837.769 355.431 818.571 357.242C739.243 364.726 570.81 392.016 525.169 407.229C479.529 422.443 465.401 446.35 464.315 485.47C463.23 524.591 464.316 684.332 492.569 740.839C512.672 781.046 558.855 786.48 596.889 777.786M910.939 361.589C930.499 377.889 942.452 405.056 948.972 427.876C955.492 450.697 974.439 574.19 966.36 618.045C958.752 659.339 925.065 682.159 906.592 693.026C888.118 703.892 664.263 768.006 596.889 777.786M910.939 361.589C884.858 344.927 814.225 312.906 740.331 318.122C647.963 324.642 442.581 356.156 373.034 381.149C303.486 406.143 301.313 438.743 299.14 474.603C296.967 510.464 300.226 635.432 308.92 675.639C317.613 715.846 319.787 729.972 345.867 748.446C371.947 766.92 458.881 788.653 492.568 788.653C526.255 788.653 562.116 786.842 596.889 777.786" stroke="black" stroke-width="20"/>
<path d="M67.6774 277.915C37.2504 267.048 28.1948 260.166 22.0369 256.181C21.3125 276.466 31.165 328.337 58.9839 347.462C67.6418 353.414 78.1184 358.765 90.4976 363.394C84.702 380.541 90.4976 399.623 98.1043 411.576C105.711 423.53 127.141 427.337 143.172 430.05C137.91 442.365 138.639 473.219 152.953 484.383C170.368 497.967 216.552 501.77 216.552 501.77C216.552 501.77 214.123 543.064 223.072 553.931C232.021 564.798 264.366 573.491 293.706 577.838C323.047 582.184 314.353 588.704 355.647 605.005C396.94 621.305 421.934 598.484 425.194 568.058C428.454 537.631 395.211 456.437 383.9 430.05C373.292 405.299 350.213 342.029 298.053 314.862C245.892 287.695 98.1043 288.782 67.6774 277.915Z" fill="#AAAAAA"/>
<path d="M216.552 501.77C216.552 501.77 214.123 543.064 223.072 553.931C232.021 564.798 264.366 573.491 293.706 577.838C323.047 582.184 314.353 588.704 355.647 605.005C396.94 621.305 421.934 598.485 425.194 568.058C428.454 537.631 395.211 456.437 383.9 430.05C373.292 405.299 350.213 342.029 298.053 314.862C245.892 287.695 98.1043 288.782 67.6774 277.915C37.2504 267.048 28.1948 260.166 22.0369 256.181C21.3125 276.466 31.165 328.337 58.9839 347.462C67.6418 353.414 78.1184 358.765 90.4976 363.394M216.552 501.77C216.552 501.77 280.666 511.55 328.48 511.55M216.552 501.77C216.552 501.77 170.368 497.967 152.953 484.383C138.639 473.219 137.91 442.365 143.172 430.05M256.759 382.236C182.492 384.743 127.839 377.355 90.4976 363.394M90.4976 363.394C84.702 380.541 90.4976 399.623 98.1043 411.576C105.711 423.53 127.141 427.337 143.172 430.05M280.666 442.003C238.797 443.554 183.098 436.806 143.172 430.05" stroke="black" stroke-width="20" stroke-linecap="round" stroke-linejoin="round"/>
<path d="M602.323 494.164C602.323 519.97 582.862 540.891 558.856 540.891C534.849 540.891 515.388 519.97 515.388 494.164C515.388 468.357 534.849 447.437 558.856 447.437C582.862 447.437 602.323 468.357 602.323 494.164Z" fill="#D9D9D9" stroke="black" stroke-width="20"/>
<path d="M575.801 494.45C575.801 504.558 568.135 512.753 558.679 512.753C549.223 512.753 541.557 504.558 541.557 494.45C541.557 484.342 549.223 476.148 558.679 476.148C568.135 476.148 575.801 484.342 575.801 494.45Z" fill="black"/>
<path d="M796.837 671.292C847.85 671.292 889.205 617.775 889.205 551.758C889.205 485.74 847.85 432.223 796.837 432.223M796.837 671.292C745.824 671.292 704.47 617.775 704.47 551.758C704.47 485.74 745.824 432.223 796.837 432.223M796.837 671.292C773.474 677.631 721.857 678.899 689.256 659.339C656.656 639.778 644.38 601.201 641.443 574.034C638.505 546.868 640.676 507.204 665.349 471.887C690.023 436.57 749.024 428.963 796.837 432.223" stroke="black" stroke-width="20"/>
<path d="M840.305 550.127C840.305 587.637 819.628 618.045 794.121 618.045C768.614 618.045 747.937 587.637 747.937 550.127C747.937 512.618 768.614 482.21 794.121 482.21C819.628 482.21 840.305 512.618 840.305 550.127Z" stroke="black" stroke-width="20"/>
<path d="M806.059 549.358C806.059 580.661 793.107 606.037 777.129 606.037C761.152 606.037 748.199 580.661 748.199 549.358C748.199 518.055 761.152 492.679 777.129 492.679C793.107 492.679 806.059 518.055 806.059 549.358Z" fill="black"/>
</svg>
